<?xml version="1.0" encoding="utf-8"?><!DOCTYPE svg PUBLIC "-//W3C//DTD SVG 1.1//EN" "http://www.w3.org/Graphics/SVG/1.1/DTD/svg11.dtd"><svg xmlns="http://www.w3.org/2000/svg" viewBox="0 0 27 27" shape-rendering="crispEdges"><path stroke="#6e1f36" d="M1 1.5h7m1 0h1m2 0h2m1 0h3m1 0h7M1 2.5h1m5 0h1m2 0h2m2 0h1m2 0h1m1 0h1m5 0h1M1 3.5h1m1 0h3m1 0h1m2 0h2m3 0h1m3 0h1m1 0h3m1 0h1M1 4.5h1m1 0h3m1 0h1m1 0h1m1 0h2m4 0h1m1 0h1m1 0h3m1 0h1M1 5.5h1m1 0h3m1 0h1m1 0h4m2 0h3m1 0h1m1 0h3m1 0h1M1 6.5h1m5 0h1m1 0h2m1 0h1m4 0h1m1 0h1m5 0h1M1 7.5h7m1 0h1m1 0h1m1 0h1m1 0h1m1 0h1m1 0h7M9 8.5h1m1 0h1m1 0h2m2 0h1M1 9.5h1m3 0h1m1 0h3m1 0h2m1 0h1m3 0h5m2 0h1M4 10.5h1m1 0h1m1 0h2m1 0h1m2 0h4m3 0h2m1 0h1M2 11.5h1m1 0h1m1 0h4m1 0h1m1 0h1m2 0h2m1 0h2m1 0h2M2 12.5h2m2 0h1m8 0h1m2 0h1m1 0h1m2 0h2M1 13.5h1m1 0h2m2 0h3m2 0h1m1 0h3m1 0h3m1 0h4M1 14.5h1m1 0h1m1 0h2m2 0h3m1 0h1m2 0h1m1 0h1m2 0h1m2 0h1M4 15.5h1m1 0h3m2 0h13M5 16.5h2m1 0h2m1 0h2m1 0h1m1 0h1m1 0h4m1 0h2M1 17.5h4m2 0h1m5 0h2m2 0h7M9 18.5h2m3 0h4m3 0h1M1 19.5h7m1 0h1m1 0h1m5 0h1m1 0h1m1 0h1M1 20.5h1m5 0h1m2 0h2m1 0h1m1 0h1m1 0h1m3 0h5M1 21.5h1m1 0h3m1 0h1m1 0h4m1 0h2m1 0h7m1 0h1M1 22.5h1m1 0h3m1 0h1m3 0h1m1 0h1m3 0h4m2 0h3M1 23.5h1m1 0h3m1 0h1m2 0h6m2 0h2m2 0h1m1 0h1M1 24.5h1m5 0h1m2 0h3m1 0h1m1 0h1m1 0h1m1 0h5M1 25.5h7m1 0h1m3 0h2m1 0h1m1 0h2m3 0h3"/></svg>
